<?xml version="1.0" standalone="no"?>
<!DOCTYPE svg PUBLIC "-//W3C//DTD SVG 20010904//EN"
 "http://www.w3.org/TR/2001/REC-SVG-20010904/DTD/svg10.dtd">
<svg version="1.0" xmlns="http://www.w3.org/2000/svg"
 width="700.000000pt" height="700.000000pt" viewBox="0 0 700.000000 700.000000"
 preserveAspectRatio="xMidYMid meet">
<metadata>
Created by potrace 1.14, written by Peter Selinger 2001-2017
</metadata>
<g transform="translate(0.000000,700.000000) scale(0.100000,-0.100000)"
fill="#000000" stroke="none">
<path d="M2760 6990 c-25 -4 -63 -10 -85 -13 -107 -16 -355 -78 -380 -96 -5
-4 -32 -16 -60 -26 -76 -27 -236 -109 -323 -165 -169 -110 -277 -211 -1040
-975 -837 -839 -819 -819 -856 -960 -21 -83 -15 -222 13 -295 42 -111 102
-188 194 -250 176 -118 392 -123 564 -11 37 24 330 310 808 787 413 412 770
765 795 785 108 85 264 155 405 182 79 15 273 17 340 3 323 -67 570 -263 698
-553 48 -107 69 -207 73 -343 6 -217 -44 -392 -161 -565 -33 -49 -278 -301
-808 -832 -509 -510 -773 -781 -798 -820 -59 -94 -78 -169 -75 -293 3 -82 9
-117 26 -160 53 -127 151 -229 272 -284 83 -38 150 -49 250 -43 75 5 100 12
175 47 l88 41 780 778 c482 481 803 793 840 818 229 153 504 201 766 134 100
-26 232 -84 301 -133 203 -144 352 -375 395 -610 10 -56 10 -270 0 -330 -20
-121 -79 -262 -159 -381 -26 -38 -327 -347 -791 -812 -412 -412 -765 -768
-783 -791 -33 -40 -80 -132 -90 -176 -43 -196 1 -362 132 -493 101 -101 203
-145 350 -151 93 -4 159 11 254 57 60 29 131 97 850 818 432 433 794 798 806
811 50 59 153 203 159 220 4 11 10 20 15 20 17 0 161 308 199 425 75 231 100
401 96 665 -3 192 -14 289 -51 433 -145 571 -529 1038 -1064 1294 -95 45 -282
114 -347 128 -10 2 -49 10 -88 18 -145 31 -246 42 -396 41 l-105 0 -2 113 c-2
109 -4 137 -18 248 -19 150 -76 367 -124 470 -5 11 -19 45 -32 75 -131 317
-417 649 -735 854 -83 53 -269 148 -328 166 -22 7 -44 16 -50 20 -8 5 -116 42
-135 45 -3 1 -45 11 -95 22 -49 12 -108 24 -130 28 -23 3 -52 8 -65 11 -38 9
-419 12 -470 4z"/>
</g>
</svg>
