<?xml version="1.0" encoding="utf-8"?>
<!-- Generator: Adobe Illustrator 19.0.1, SVG Export Plug-In . SVG Version: 6.00 Build 0)  -->
<!DOCTYPE svg PUBLIC "-//W3C//DTD SVG 1.1//EN" "http://www.w3.org/Graphics/SVG/1.1/DTD/svg11.dtd">
<svg version="1.1" id="Layer_1" xmlns="http://www.w3.org/2000/svg" xmlns:xlink="http://www.w3.org/1999/xlink" x="0px" y="0px"
	 viewBox="0 0 177.5 177.5" enable-background="new 0 0 177.5 177.5" xml:space="preserve">
<path fill="currentColor" d="M163.1,67c-9.4-9.4-22-14.7-35.4-14.7c-0.8,0-1.6,0.1-2.4,0.1c0.6-13.6-4.2-27.4-14.5-37.8
	c-19.5-19.5-51.2-19.5-70.7,0l0,0L3.8,50.9c-5.1,5.1-5.1,13.4,0,18.4c2.5,2.5,5.9,3.8,9.2,3.8s6.7-1.3,9.2-3.8l36.2-36.2l0,0
	c9.3-9.3,24.5-9.3,33.8,0s9.3,24.5,0,33.8L56,103.1c-5.1,5.1-5.1,13.4,0,18.4c2.5,2.5,5.9,3.8,9.2,3.8c3.3,0,6.7-1.3,9.2-3.8
	l36.2-36.2c4.5-4.5,10.5-7,16.9-7c6.4,0,12.4,2.5,16.9,7s7,10.5,7,16.9s-2.5,12.4-7,16.9l-36.2,36.2c-5.1,5.1-5.1,13.4,0,18.4
	c2.5,2.5,5.9,3.8,9.2,3.8s6.7-1.3,9.2-3.8l36.2-36.2c9.4-9.4,14.7-22,14.7-35.4C177.7,89,172.5,76.4,163.1,67z"/>
</svg>
